<?xml version="1.0" encoding="UTF-8"?>
<svg version="1.1" xmlns="http://www.w3.org/2000/svg" viewBox="80 65 580 215" width="580" height="215">
<path d="M0 0 C42.9 0 85.8 0 130 0 C130 63.03 130 126.06 130 191 C124.06 191 118.12 191 112 191 C112 133.58 112 76.16 112 17 C75.8889086 17.03961059 75.8889086 17.03961059 39.77783203 17.09008789 C32.80444336 17.09460449 32.80444336 17.09460449 29.54318237 17.09544373 C27.25826829 17.0969825 24.97335503 17.10050606 22.68844604 17.10557556 C19.23385195 17.11285916 15.77930761 17.11390721 12.32470703 17.11352539 C11.30138338 17.1171235 10.27805973 17.12072161 9.22372627 17.12442875 C8.29735296 17.12305125 7.37097965 17.12167376 6.41653442 17.12025452 C5.60720018 17.12117631 4.79786594 17.1220981 3.96400642 17.12304783 C2 17 2 17 0 16 C0 10.72 0 5.44 0 0 Z " fill="#000000" transform="translate(152,73)"/>
<path d="M0 0 C5.61 0 11.22 0 17 0 C17 57.42 17 114.84 17 174 C53.96 174 90.92 174 129 174 C129 179.61 129 185.22 129 191 C112.19776128 191.02311867 95.39552888 191.04097906 78.59327793 191.05181217 C70.79224164 191.05697518 62.99121539 191.06401797 55.19018555 191.07543945 C48.39323687 191.08538615 41.59629546 191.09185339 34.79933971 191.09408849 C31.19821869 191.09539563 27.59711848 191.09848164 23.9960041 191.10573006 C19.98243398 191.11374364 15.96890036 191.11399115 11.95532227 191.11352539 C10.75267227 191.11712067 9.55002228 191.12071594 8.31092834 191.12442017 C7.22412781 191.1230455 6.13732727 191.12167084 5.01759338 191.12025452 C4.06722482 191.12117631 3.11685625 191.1220981 2.13768864 191.12304783 C0 191 0 191 -1 190 C-1.09990489 187.56119823 -1.1344195 185.15065736 -1.12698364 182.71130371 C-1.12854363 181.93936346 -1.13010362 181.1674232 -1.13171089 180.37209082 C-1.13572392 177.76561969 -1.13253008 175.15920602 -1.12939453 172.55273438 C-1.13074844 170.69216375 -1.13252831 168.8315934 -1.13470459 166.97102356 C-1.13928019 161.9029888 -1.13748885 156.8349743 -1.1343255 151.76693916 C-1.13180255 146.47560698 -1.13413926 141.18427659 -1.13571167 135.89294434 C-1.13753356 127.00528653 -1.13512656 118.11763702 -1.13037109 109.22998047 C-1.12492844 98.93884221 -1.12669108 88.64772376 -1.1321975 78.35658598 C-1.13672809 69.53793782 -1.13737944 60.71929564 -1.13475883 51.90064669 C-1.13319576 46.62615922 -1.13300311 41.35168109 -1.13629532 36.07719421 C-1.13917325 31.11968237 -1.13719978 26.16219618 -1.13140106 21.20468712 C-1.13007304 19.37969188 -1.13046828 17.55469449 -1.13266373 15.72970009 C-1.1353736 13.24933582 -1.13199612 10.76905515 -1.12698364 8.28869629 C-1.12921436 7.55690202 -1.13144509 6.82510776 -1.13374341 6.07113791 C-1.11414986 1.11414986 -1.11414986 1.11414986 0 0 Z " fill="#000000" transform="translate(86,73)"/>
<path d="M0 0 C1.56125851 0.00399299 3.12251789 0.01875614 4.68359375 0.04296875 C5.8737207 0.04393555 5.8737207 0.04393555 7.08789062 0.04492188 C12.98083853 0.09021353 12.98083853 0.09021353 14.12109375 1.23046875 C14.2213293 3.567612 14.25728578 5.875212 14.25048828 8.21289062 C14.25311676 9.30797691 14.25311676 9.30797691 14.25579834 10.42518616 C14.26021674 12.84988753 14.25727892 15.27451657 14.25390625 17.69921875 C14.25457929 19.37691258 14.25554932 21.05460631 14.25680542 22.7322998 C14.25828238 26.25302049 14.25612791 29.77371585 14.25146484 33.29443359 C14.24576755 37.81757371 14.24904657 42.34065449 14.25503731 46.86379242 C14.25864298 50.3294927 14.25750431 53.79517882 14.25490952 57.26087952 C14.25424026 58.929123 14.25506861 60.59736774 14.25738907 62.26560974 C14.2599157 64.59312369 14.25607488 66.92054023 14.25048828 69.24804688 C14.25251251 69.94418594 14.25453674 70.64032501 14.25662231 71.3575592 C14.23535649 76.11620601 14.23535649 76.11620601 13.12109375 77.23046875 C11.60290855 77.32625468 10.08026979 77.35235022 8.55906677 77.35072327 C7.08032074 77.35278526 7.08032074 77.35278526 5.57170105 77.35488892 C4.48125992 77.35129364 3.39081879 77.34769836 2.26733398 77.34399414 C0.55536331 77.34421318 0.55536331 77.34421318 -1.19119263 77.34443665 C-4.98425156 77.34373693 -8.77726209 77.33594182 -12.5703125 77.328125 C-15.19205193 77.32626103 -17.81379171 77.32483703 -20.43553162 77.32383728 C-26.6439258 77.32072426 -32.85230246 77.31251127 -39.06068891 77.30248779 C-46.12708066 77.29132574 -53.19347324 77.28581597 -60.2598716 77.28079236 C-74.7995591 77.27032863 -89.33923184 77.25252926 -103.87890625 77.23046875 C-103.87890625 70.96046875 -103.87890625 64.69046875 -103.87890625 58.23046875 C-71.53890625 58.23046875 -39.19890625 58.23046875 -5.87890625 58.23046875 C-5.95809661 39.89081056 -5.95809661 39.89081056 -6.05908203 21.55126953 C-6.06492088 19.25944199 -6.07001787 16.96761238 -6.07421875 14.67578125 C-6.08445068 13.47687256 -6.09468262 12.27796387 -6.10522461 11.04272461 C-6.10558716 9.33765747 -6.10558716 9.33765747 -6.10595703 7.59814453 C-6.11039825 6.60775177 -6.11483948 5.61735901 -6.11941528 4.59695435 C-5.68326551 0.30546412 -4.1212807 0.24486965 0 0 Z " fill="#000000" transform="translate(230.87890625,148.76953125)"/>
<path d="M0 0 C38.94 0 77.88 0 118 0 C118 5.94 118 11.88 118 18 C85.33 18 52.66 18 19 18 C19 37.14 19 56.28 19 76 C12.73 76 6.46 76 0 76 C0 50.92 0 25.84 0 0 Z " fill="#000000" transform="translate(127,111)"/>
<path d="M0 0 C18.81 0 37.62 0 57 0 C57 18.15 57 36.3 57 55 C38.19 55 19.38 55 0 55 C0 36.85 0 18.7 0 0 Z " fill="#000000" transform="translate(157,141)"/>
<path d="M0 0 C0.99 0 1.98 0 3 0 C6.33333333 0 9.66666667 0 13 0 C13.07440448 5.15947346 13.12872191 10.31863151 13.16479492 15.47851562 C13.17983995 17.23215173 13.20028104 18.98575047 13.22631836 20.73925781 C13.26289121 23.26637009 13.2797692 25.79298296 13.29296875 28.3203125 C13.30845261 29.09867462 13.32393646 29.87703674 13.33988953 30.6789856 C13.34137172 35.52153066 12.6748755 38.8016934 10 43 C4.27342785 47.15176481 -1.12725684 47.59445578 -8 47 C-11.85084986 45.96405709 -15.73253651 44.40119524 -18 41 C-18.75 37.875 -18.75 37.875 -19 35 C-18 34 -18 34 -14.1875 33.8125 C-10.96459799 33.8414309 -8.74455277 34.17029815 -6 36 C-6 36.66 -6 37.32 -6 38 C-2.535 37.505 -2.535 37.505 1 37 C1 35.35 1 33.7 1 32 C0.01 32.495 0.01 32.495 -1 33 C-5.89355743 33.5368831 -9.89355898 33.48281063 -14.4375 31.5 C-18.80032177 27.24358852 -20.1115253 22.57725901 -20.4375 16.5625 C-20.21894682 11.50955057 -18.94480125 7.14422873 -16 3 C-10.84156886 -1.3481466 -6.3514826 -1.29182697 0 0 Z M-6.625 9 C-8.73837572 12.07400105 -9.01423191 15.3566317 -9 19 C-8.09108722 22.21615293 -7.35959872 23.64040128 -5 26 C-2.46048456 25.90888062 -2.46048456 25.90888062 0 25 C2.81763156 20.77355266 2.67441907 16.96469944 2 12 C0.39294394 9.30357301 0.39294394 9.30357301 -2 8 C-4.89217787 7.73795129 -4.89217787 7.73795129 -6.625 9 Z " fill="#000000" transform="translate(602,155)"/>
<path d="M0 0 C2.65663216 2.33265263 4.17172345 4.00485471 5.5625 7.25 C5.75 10.5625 5.75 10.5625 5.5625 13.25 C2.8125 13.625 2.8125 13.625 -0.4375 13.25 C-2.75 10.3125 -2.75 10.3125 -4.4375 7.25 C-6.17599628 5.51150372 -8.5161637 6.07783704 -10.875 6.0625 C-11.86371094 6.04832031 -12.85242188 6.03414062 -13.87109375 6.01953125 C-16.60334415 5.98849247 -16.60334415 5.98849247 -18.4375 8.25 C-18.11708603 10.85280568 -18.11708603 10.85280568 -17.4375 13.25 C-16.89222656 13.43175781 -16.34695313 13.61351563 -15.78515625 13.80078125 C-14.19570077 14.33059974 -12.60722784 14.86337125 -11.01953125 15.3984375 C-9.35739803 15.94661457 -7.68832494 16.4743906 -6.01171875 16.9765625 C-0.49358176 18.66446322 3.794991 20.35771255 6.9375 25.5 C7.94852846 29.94852523 7.84600346 34.07091763 5.515625 38.02734375 C3.19755099 40.95355446 1.03712681 42.951462 -2.4375 44.25 C-18.14280912 45.6289154 -18.14280912 45.6289154 -24.4375 41.25 C-27.32482484 37.82083785 -29.28144337 34.74814368 -29.75 30.25 C-29.646875 29.59 -29.54375 28.93 -29.4375 28.25 C-26.7975 28.25 -24.1575 28.25 -21.4375 28.25 C-21.210625 29.013125 -20.98375 29.77625 -20.75 30.5625 C-19.07485151 33.99256596 -17.97536617 34.81979878 -14.4375 36.25 C-9.54458146 36.80919069 -5.77533087 36.71892415 -1.4375 34.25 C-1.01969121 31.87694422 -1.01969121 31.87694422 -1.4375 29.25 C-5.16532445 26.48735337 -8.98412727 25.40173433 -13.4375 24.25 C-19.39352392 22.70964899 -23.92560616 21.51784075 -27.4375 16.25 C-28.02510427 11.74757764 -27.94040275 7.56313495 -26.3125 3.3125 C-19.6305562 -4.03763818 -8.4156669 -4.28433951 0 0 Z " fill="#000000" transform="translate(336.4375,76.75)"/>
<path d="M0 0 C3.16718486 2.6163701 4.50924088 4.51873897 5.875 8.375 C5.875 9.695 5.875 11.015 5.875 12.375 C3.895 12.705 1.915 13.035 -0.125 13.375 C-0.516875 12.59125 -0.90875 11.8075 -1.3125 11 C-3.48572218 7.85257477 -4.40633825 7.18340473 -8.125 6.375 C-11.15963339 6.51780628 -14.12709258 6.89167724 -17.125 7.375 C-17.455 9.025 -17.785 10.675 -18.125 12.375 C-12.96323727 15.12326885 -7.86605216 16.68573846 -2.24609375 18.21484375 C1.94069615 19.77113487 4.90620536 21.78969969 7.25 25.625 C8.45076022 30.90834497 7.57565858 34.94673444 5.25 39.6875 C1.6754279 43.73241054 -1.51708489 45.09474644 -6.7421875 45.65625 C-13.22962912 45.87189903 -19.73935818 45.5411239 -24.69140625 40.91015625 C-28.45270519 36.52733213 -29.24838999 34.05093943 -29.125 28.375 C-26.485 28.375 -23.845 28.375 -21.125 28.375 C-20.91875 29.48875 -20.7125 30.6025 -20.5 31.75 C-19.51462982 35.54517982 -19.51462982 35.54517982 -16.4375 36.8125 C-10.42692522 37.83316364 -5.82644187 37.59995292 -0.125 35.375 C-0.455 33.065 -0.785 30.755 -1.125 28.375 C-2.03995239 28.09619995 -2.03995239 28.09619995 -2.97338867 27.81176758 C-5.75835589 26.95312448 -8.53519758 26.07060538 -11.3125 25.1875 C-12.27220703 24.89552734 -13.23191406 24.60355469 -14.22070312 24.30273438 C-19.61259365 22.56762774 -23.67485742 21.13431619 -27.125 16.375 C-28.20644309 12.36093772 -28.04786646 8.21696612 -26.16796875 4.46484375 C-20.37283772 -3.02283349 -8.21808113 -4.21440058 0 0 Z " fill="#000000" transform="translate(336.125,212.625)"/>
<path d="M0 0 C1.4540625 0.0309375 1.4540625 0.0309375 2.9375 0.0625 C2.9375 0.7225 2.9375 1.3825 2.9375 2.0625 C3.77474609 1.57716797 3.77474609 1.57716797 4.62890625 1.08203125 C8.59858443 -0.67107536 12.67891303 -0.41220517 16.9375 0.0625 C20.0625 1.5625 20.0625 1.5625 21.9375 3.0625 C22.494375 2.57652344 23.05125 2.09054688 23.625 1.58984375 C27.47234417 -0.95122309 31.48322472 -0.6267639 35.9375 0.0625 C38.51387471 1.94765223 39.53417428 3.25584857 40.9375 6.0625 C41.02293895 8.16778933 41.04464725 10.27581157 41.03515625 12.3828125 C41.03193359 13.63964844 41.02871094 14.89648438 41.02539062 16.19140625 C41.01282227 18.16947266 41.01282227 18.16947266 41 20.1875 C40.99498489 21.52734211 40.99042201 22.867186 40.98632812 24.20703125 C40.97451086 27.49223206 40.95803617 30.77734397 40.9375 34.0625 C38.6275 34.0625 36.3175 34.0625 33.9375 34.0625 C33.91244385 33.34594238 33.8873877 32.62938477 33.86157227 31.89111328 C33.74580249 28.65638486 33.62299031 25.42196159 33.5 22.1875 C33.46068359 21.05957031 33.42136719 19.93164062 33.38085938 18.76953125 C33.33896484 17.69316406 33.29707031 16.61679688 33.25390625 15.5078125 C33.19891968 14.01531982 33.19891968 14.01531982 33.14282227 12.49267578 C33.08790468 10.05470499 33.08790468 10.05470499 31.9375 8.0625 C29.02097826 7.89568891 29.02097826 7.89568891 25.9375 8.0625 C23.37743285 10.62256715 23.65273977 11.69663977 23.55859375 15.25390625 C23.52443359 16.28064453 23.49027344 17.30738281 23.45507812 18.36523438 C23.42865234 19.44095703 23.40222656 20.51667969 23.375 21.625 C23.31533323 23.75142214 23.2517487 25.87773924 23.18359375 28.00390625 C23.15966553 28.94951416 23.1357373 29.89512207 23.11108398 30.86938477 C22.9375 33.0625 22.9375 33.0625 21.9375 34.0625 C19.9575 34.0625 17.9775 34.0625 15.9375 34.0625 C15.4425 21.1925 15.4425 21.1925 14.9375 8.0625 C8.39097984 7.2922991 8.39097984 7.2922991 6.03198242 9.73730469 C4.77459316 12.40859073 4.51144686 14.31872801 4.42578125 17.265625 C4.39033203 18.2453125 4.35488281 19.225 4.31835938 20.234375 C4.28452148 21.75804687 4.28452148 21.75804687 4.25 23.3125 C4.21583984 24.34375 4.18167969 25.375 4.14648438 26.4375 C4.06411907 28.97905812 3.99493166 31.52027626 3.9375 34.0625 C1.2975 34.0625 -1.3425 34.0625 -4.0625 34.0625 C-4.08715288 29.38110746 -4.10533739 24.69975241 -4.11743164 20.01831055 C-4.12247157 18.42455386 -4.1293035 16.83080181 -4.13793945 15.23706055 C-4.15001999 12.95099747 -4.15573155 10.66499533 -4.16015625 8.37890625 C-4.16531754 7.66223282 -4.17047882 6.94555939 -4.17579651 6.20716858 C-4.17599263 4.49186328 -4.12442007 2.77668734 -4.0625 1.0625 C-3.0625 0.0625 -3.0625 0.0625 0 0 Z " fill="#000000" transform="translate(389.0625,86.9375)"/>
<path d="M0 0 C3.63 0 7.26 0 11 0 C11.33 3.96 11.66 7.92 12 12 C13.32 11.34 14.64 10.68 16 10 C21.20981469 9.51760975 24.59553511 10.13197635 29 13 C31.27211898 16.37314157 31.2330246 19.29939277 31.1953125 23.296875 C31.18886719 24.50214844 31.18242187 25.70742187 31.17578125 26.94921875 C31.15902344 28.20347656 31.14226562 29.45773438 31.125 30.75 C31.11597656 32.01972656 31.10695313 33.28945312 31.09765625 34.59765625 C31.07409005 37.73196093 31.04118832 40.86588541 31 44 C27.7 44 24.4 44 21 44 C20.505 32.12 20.505 32.12 20 20 C17.69 20.33 15.38 20.66 13 21 C11.79729036 23.40541929 11.79683337 25.10366591 11.68359375 27.7890625 C11.62075195 29.20058594 11.62075195 29.20058594 11.55664062 30.640625 C11.49766602 32.11789063 11.49766602 32.11789063 11.4375 33.625 C11.39431641 34.61757812 11.35113281 35.61015625 11.30664062 36.6328125 C11.20039053 39.08837033 11.09967545 41.54416651 11 44 C7.37 44 3.74 44 0 44 C0 29.48 0 14.96 0 0 Z " fill="#000000" transform="translate(412,144)"/>
<path d="M0 0 C3.63 0 7.26 0 11 0 C11.83887056 2.43572059 12.67126529 4.87333217 13.5 7.3125 C13.73847656 8.00279297 13.97695313 8.69308594 14.22265625 9.40429688 C15.23208263 12.38931489 16 14.82658914 16 18 C16.66 18 17.32 18 18 18 C18.0825 17.071875 18.165 16.14375 18.25 15.1875 C18.98465773 9.85849022 21.08627801 5.00037036 23 0 C26.63 0 30.26 0 34 0 C33.41029386 4.23770148 32.41052869 7.93983731 30.85546875 11.921875 C30.42556641 13.03046875 29.99566406 14.1390625 29.55273438 15.28125 C28.87694336 16.99828125 28.87694336 16.99828125 28.1875 18.75 C27.74857422 19.87921875 27.30964844 21.0084375 26.85742188 22.171875 C25.9905509 24.3976596 25.11930763 26.62174695 24.2434082 28.84399414 C23.44046302 30.8820213 22.64423409 32.92271326 21.85620117 34.96655273 C21.50920166 35.85802002 21.16220215 36.7494873 20.8046875 37.66796875 C20.5041748 38.4468042 20.20366211 39.22563965 19.89404297 40.02807617 C18.71211359 42.63496956 17.29312429 44.29864972 15 46 C11.10835652 47.29721449 8.10570774 47.13033993 4 47 C3.34 46.67 2.68 46.34 2 46 C2 43.36 2 40.72 2 38 C5.465 37.505 5.465 37.505 9 37 C11.24443703 29.57275669 7.93070954 23.687823 5.0625 16.8125 C4.11003093 14.48806744 3.16315645 12.16133231 2.22265625 9.83203125 C1.79734619 8.80827393 1.37203613 7.7845166 0.93383789 6.72973633 C0 4 0 4 0 0 Z " fill="#000000" transform="translate(619,155)"/>
<path d="M0 0 C1.5159375 0.0309375 1.5159375 0.0309375 3.0625 0.0625 C3.7225 0.0625 4.3825 0.0625 5.0625 0.0625 C10.72916667 0.0625 16.39583333 0.0625 22.0625 0.0625 C24.89464207 7.0072739 27.52846996 14.00341632 30.0625 21.0625 C32.7025 14.1325 35.3425 7.2025 38.0625 0.0625 C40.3725 0.0625 42.6825 0.0625 45.0625 0.0625 C46.39347865 4.05543596 45.03805236 6.41605207 43.53515625 10.13671875 C43.26738876 10.8205513 42.99962128 11.50438385 42.72373962 12.2089386 C41.86624921 14.39286217 40.99582983 16.57136567 40.125 18.75 C39.54145906 20.22947932 38.9587661 21.70929341 38.37695312 23.18945312 C36.94861384 26.81776028 35.50865785 30.44126008 34.0625 34.0625 C31.7525 34.0625 29.4425 34.0625 27.0625 34.0625 C23.7759309 27.89654735 21.44791174 21.70702152 19.3125 15.0625 C18.99667969 14.09699219 18.68085938 13.13148438 18.35546875 12.13671875 C17.58558029 9.78039347 16.82139935 7.42238263 16.0625 5.0625 C15.0725 6.5475 15.0725 6.5475 14.0625 8.0625 C11.0625 8.1875 11.0625 8.1875 8.0625 8.0625 C7.0725 8.5575 7.0725 8.5575 6.0625 9.0625 C5.0893319 11.9820043 4.8695454 14.11694951 4.74609375 17.16796875 C4.70419922 18.15087891 4.66230469 19.13378906 4.61914062 20.14648438 C4.57982422 21.17064453 4.54050781 22.19480469 4.5 23.25 C4.45681641 24.28576172 4.41363281 25.32152344 4.36914062 26.38867188 C4.26305634 28.9464819 4.16099854 31.50438845 4.0625 34.0625 C1.4225 34.0625 -1.2175 34.0625 -3.9375 34.0625 C-3.96215288 29.38110746 -3.98033739 24.69975241 -3.99243164 20.01831055 C-3.99747157 18.42455386 -4.0043035 16.83080181 -4.01293945 15.23706055 C-4.02501999 12.95099747 -4.03073155 10.66499533 -4.03515625 8.37890625 C-4.04031754 7.66223282 -4.04547882 6.94555939 -4.05079651 6.20716858 C-4.05099263 4.49186328 -3.99942007 2.77668734 -3.9375 1.0625 C-2.9375 0.0625 -2.9375 0.0625 0 0 Z " fill="#000000" transform="translate(388.9375,222.9375)"/>
<path d="M0 0 C4.06385768 3.52200999 6.68813045 6.39625193 7.3359375 11.8046875 C7.41525118 18.03874265 7.43705771 22.20318086 3 27 C-2.64237286 31.9706618 -6.21617914 32.41391525 -13.65625 32.33984375 C-18.45480037 31.85214062 -21.60964376 30.42512912 -25 27 C-28.37240519 21.62522923 -28.8614519 16.18503108 -28 10 C-26.59316871 5.36619975 -24.76826095 2.62421202 -21 -0.4375 C-13.77716956 -4.19939085 -7.23629884 -3.88616049 0 0 Z M-15.875 8.5 C-17.46359813 12.03021807 -17.79369486 15.24663928 -17 19 C-14.99820005 22.16984261 -14.99820005 22.16984261 -12 24 C-8.7939447 24.07633465 -7.56081643 23.50280094 -5.1875 21.375 C-3.54425963 18.08851926 -3.67590859 15.62982383 -4 12 C-5.01736771 9.23857335 -5.36170741 8.31914629 -8 7 C-12.26472726 6.50670415 -12.26472726 6.50670415 -15.875 8.5 Z " fill="#000000" transform="translate(515,157)"/>
<path d="M0 0 C4.07946962 3.8880871 5.83072126 8.06277923 6.1171875 13.66796875 C5.85450954 18.89526014 4.86884807 23.01255982 1.21484375 26.8984375 C-3.94750276 30.88965277 -8.66294216 31.87395534 -15.125 31.51953125 C-20.84965045 30.48504958 -24.45938423 27.97391395 -28 23.4375 C-29.71114319 17.55544529 -30.30420218 11.36516366 -28.05078125 5.55078125 C-25.28855411 0.83669644 -22.2949445 -1.79185368 -17.125 -3.6875 C-10.39787143 -4.67678361 -5.53930735 -3.92512764 0 0 Z M-16.875 7.4375 C-18.56850528 11.2949287 -18.67509931 14.85837951 -18 19 C-16.57955419 21.75609295 -16.57955419 21.75609295 -14 23 C-10.86637282 23.08892339 -10.86637282 23.08892339 -8 22 C-5.30530693 17.95796039 -5.46081835 14.74137511 -6 10 C-6.91313108 7.36073536 -6.91313108 7.36073536 -9 6 C-12.367984 5.43866933 -14.12375174 5.32820967 -16.875 7.4375 Z " fill="#000000" transform="translate(573,158)"/>
<path d="M0 0 C3.89445639 2.18119747 5.92766438 4.22836163 7.8125 8.375 C8.40887307 12.07047414 8.62948379 15.62316763 8.8125 19.375 C-1.5825 19.87 -1.5825 19.87 -12.1875 20.375 C-11.8575 21.695 -11.5275 23.015 -11.1875 24.375 C-8.89455512 25.23474801 -8.89455512 25.23474801 -6.1875 25.375 C-5.630625 24.715 -5.07375 24.055 -4.5 23.375 C-2.1875 21.375 -2.1875 21.375 0.28515625 21.328125 C2.81418839 21.59845755 5.30766201 21.93521928 7.8125 22.375 C7.39784283 27.21266699 5.3926385 29.23146376 1.8125 32.375 C-2.83591644 34.69920822 -9.12852593 33.78938695 -14.1875 33.375 C-17.73232504 32.19124717 -19.58145635 30.19330531 -21.8046875 27.19140625 C-24.65856148 21.37885501 -24.1817051 13.20800455 -22.56640625 6.98046875 C-20.54438013 2.85553546 -17.34212826 0.77743831 -13.26171875 -0.96484375 C-8.38612322 -2.51658696 -4.59002204 -2.01927033 0 0 Z M-11 8.625 C-12.46825071 10.4362603 -12.46825071 10.4362603 -12.1875 13.375 C-8.8875 13.375 -5.5875 13.375 -2.1875 13.375 C-2.81283375 10.85136012 -2.81283375 10.85136012 -4.1875 8.375 C-7.09162678 7.18356337 -8.36364345 6.80682307 -11 8.625 Z " fill="#000000" transform="translate(363.1875,155.625)"/>
<path d="M0 0 C3.52594348 2.71791476 5.24309818 4.66127001 6 9 C6.08026745 10.87877624 6.10765872 12.7601615 6.09765625 14.640625 C6.09443359 15.71054688 6.09121094 16.78046875 6.08789062 17.8828125 C6.07532227 19.54957031 6.07532227 19.54957031 6.0625 21.25 C6.05798828 22.37664062 6.05347656 23.50328125 6.04882812 24.6640625 C6.03705411 27.44273106 6.019119 30.22137227 6 33 C2.37 33 -1.26 33 -5 33 C-5.495 21.12 -5.495 21.12 -6 9 C-8.31 9.33 -10.62 9.66 -13 10 C-13.9300889 12.7902667 -14.18698769 14.76529542 -14.31640625 17.66796875 C-14.35830078 18.56064453 -14.40019531 19.45332031 -14.44335938 20.37304688 C-14.50233398 21.76620117 -14.50233398 21.76620117 -14.5625 23.1875 C-14.60568359 24.12787109 -14.64886719 25.06824219 -14.69335938 26.03710938 C-14.79938543 28.35790188 -14.90019194 30.67893177 -15 33 C-18.63 33 -22.26 33 -26 33 C-26.02465392 28.46102295 -26.04283789 23.92208457 -26.05493164 19.38305664 C-26.0599714 17.83780234 -26.0668032 16.29255284 -26.07543945 14.74731445 C-26.08752076 12.53074971 -26.09323173 10.31424782 -26.09765625 8.09765625 C-26.10281754 7.4028566 -26.10797882 6.70805695 -26.11329651 5.99220276 C-26.11349277 4.3277067 -26.06189129 2.66334501 -26 1 C-25 0 -25 0 -22.93359375 -0.09765625 C-21.69802734 -0.08025391 -21.69802734 -0.08025391 -20.4375 -0.0625 C-19.61121094 -0.05347656 -18.78492188 -0.04445312 -17.93359375 -0.03515625 C-17.29550781 -0.02355469 -16.65742188 -0.01195312 -16 0 C-15.67 0.66 -15.34 1.32 -15 2 C-14.195625 1.484375 -13.39125 0.96875 -12.5625 0.4375 C-8.02747385 -1.39242283 -4.66971101 -1.41897296 0 0 Z " fill="#000000" transform="translate(476,155)"/>
<path d="M0 0 C3.3801896 1.87935885 5.21776638 3.63816594 6.6875 7.3125 C6.6875 8.6325 6.6875 9.9525 6.6875 11.3125 C5.08762764 11.58865058 3.482167 11.83257625 1.875 12.0625 C0.98167969 12.20171875 0.08835937 12.3409375 -0.83203125 12.484375 C-1.65058594 12.42765625 -2.46914063 12.3709375 -3.3125 12.3125 C-4.9375 10.34375 -4.9375 10.34375 -6.3125 8.3125 C-9.43836875 7.97852213 -9.43836875 7.97852213 -12.3125 8.3125 C-13.86048433 13.14995102 -14.14658066 17.67909205 -11.8125 22.25 C-11.3175 22.930625 -10.8225 23.61125 -10.3125 24.3125 C-7.86769921 24.12421228 -7.86769921 24.12421228 -5.3125 23.3125 C-4.6525 21.9925 -3.9925 20.6725 -3.3125 19.3125 C0.3175 19.6425 3.9475 19.9725 7.6875 20.3125 C6.48005648 26.47046193 4.80765917 28.68572059 -0.3125 32.3125 C-4.73663779 34.52456889 -10.4967182 33.71723684 -15.3125 33.3125 C-20.19528319 31.25659129 -22.52123601 28.32384466 -24.6171875 23.5859375 C-26.36526234 17.87032201 -26.10531443 12.40297967 -23.6875 6.9375 C-18.77711877 -1.71245982 -8.72365619 -3.99163604 0 0 Z " fill="#000000" transform="translate(400.3125,155.6875)"/>
<path d="M0 0 C1.22332031 -0.03738281 2.44664062 -0.07476562 3.70703125 -0.11328125 C7.77707269 0.38462505 9.35317704 1.40483042 12.1875 4.3125 C13.26705212 7.55115635 13.39191741 10.10405838 13.50390625 13.51171875 C13.54580078 14.72021484 13.58769531 15.92871094 13.63085938 17.17382812 C13.67017578 18.43646484 13.70949219 19.69910156 13.75 21 C13.79318359 22.27423828 13.83636719 23.54847656 13.88085938 24.86132812 C13.9870486 28.01160852 14.08909533 31.16196839 14.1875 34.3125 C10.8125 34.4375 10.8125 34.4375 7.1875 34.3125 C6.5275 33.6525 5.8675 32.9925 5.1875 32.3125 C4.36572266 32.79783203 4.36572266 32.79783203 3.52734375 33.29296875 C-0.72816258 35.1472044 -5.25945822 34.75768631 -9.8125 34.3125 C-12.9375 33 -12.9375 33 -14.8125 31.3125 C-16.3380006 26.73599819 -16.58521726 23.01247797 -14.5625 18.5625 C-9.17189713 14.15200675 -1.66450576 13.07274289 5.1875 13.3125 C4.64041273 10.77505685 4.64041273 10.77505685 3.1875 8.3125 C0.38583907 6.97026386 0.38583907 6.97026386 -2.8125 7.3125 C-3.616875 8.116875 -4.42125 8.92125 -5.25 9.75 C-7.8125 12.3125 -7.8125 12.3125 -11.625 12.625 C-12.676875 12.521875 -13.72875 12.41875 -14.8125 12.3125 C-14.44416144 5.92796499 -14.44416144 5.92796499 -11.375 2.9375 C-7.29647478 0.35111815 -4.86523494 0.09679525 0 0 Z M-2.4375 20.8125 C-3.44039063 21.0909375 -4.44328125 21.369375 -5.4765625 21.65625 C-6.24742187 21.8728125 -7.01828125 22.089375 -7.8125 22.3125 C-7.8125 23.9625 -7.8125 25.6125 -7.8125 27.3125 C-4.95925563 28.73912219 -2.97795451 28.62283868 0.1875 28.3125 C3.13797553 26.76914971 3.13797553 26.76914971 5.1875 24.3125 C5.60620553 21.64321879 5.60620553 21.64321879 5.1875 19.3125 C2.47813794 19.3125 0.17031251 20.08473837 -2.4375 20.8125 Z " fill="#000000" transform="translate(451.8125,86.6875)"/>
<path d="M0 0 C11.88 0 23.76 0 36 0 C37 5 37 5 36 8 C32.04 8 28.08 8 24 8 C24 19.88 24 31.76 24 44 C20.37 44 16.74 44 13 44 C13 32.12 13 20.24 13 8 C8.71 8 4.42 8 0 8 C0 5.36 0 2.72 0 0 Z " fill="#000000" transform="translate(305,144)"/>
<path d="M0 0 C4.56260532 2.2412798 7.85776622 4.9886564 9.6875 9.8125 C10.12085336 12.84597355 10 15.93572897 10 19 C2.08 19 -5.84 19 -14 19 C-11.5797509 24.63106761 -11.5797509 24.63106761 -9 27 C-5.58461856 27.58369443 -5.58461856 27.58369443 -2 27 C-1.360625 26.154375 -0.72125 25.30875 -0.0625 24.4375 C0.618125 23.633125 1.29875 22.82875 2 22 C4.87188343 21.84446279 7.15283427 22.38311409 10 23 C8.72545246 27.98232221 6.95677819 30.70268484 3 34 C-2.38003432 35.76740797 -7.98836494 35.68319681 -13.3125 33.875 C-17.64962205 30.8491009 -19.98252885 27.14549695 -21 22 C-21.76227325 14.20135829 -20.53955722 8.12560888 -15.5625 2 C-11.03772364 -1.34538603 -5.31579279 -0.79481675 0 0 Z M-13 11 C-13 11.66 -13 12.32 -13 13 C-8.05 13 -3.1 13 2 13 C0.52360997 7.93991361 0.52360997 7.93991361 -3 6 C-8.00929437 5.07723525 -9.88613712 7.26336454 -13 11 Z " fill="#000000" transform="translate(505,223)"/>
<path d="M0 0 C3.79626615 1.37311754 4.86745846 2.82447201 7.3125 6.0625 C9 10 9 10 9 20 C1.74 20 -5.52 20 -13 20 C-12.01 21.98 -11.02 23.96 -10 26 C-6.64407137 27.33660145 -6.64407137 27.33660145 -3 27 C-1.31295807 25.69254251 0.35360035 24.35827971 2 23 C5.8125 22.75 5.8125 22.75 9 23 C8.89259963 26.65161244 7.71700888 28.74802905 5.25 31.3125 C0.85797397 34.83157676 -3.51348241 34.7285095 -8.96484375 34.453125 C-14.2197192 33.66861335 -16.70879275 31.67856942 -19.875 27.5625 C-21.95032815 20.99062752 -21.99407032 13.98221097 -19.8125 7.4375 C-14.26814878 -0.01869647 -8.77093232 -0.67370929 0 0 Z M-11 8 C-11.66 9.65 -12.32 11.3 -13 13 C-8.05 13 -3.1 13 2 13 C0.59822467 8.14123888 0.59822467 8.14123888 -1.9375 6.6875 C-5.54434068 5.48521977 -7.91442709 5.90977319 -11 8 Z " fill="#000000" transform="translate(370,87)"/>
<path d="M0 0 C3.94818227 1.80092525 5.48082732 3.19438722 7.8125 6.8125 C9.09604053 10.25779301 9.71825019 13.33725242 10 17 C9.67 17.66 9.34 18.32 9 19 C1.74 19 -5.52 19 -13 19 C-11.46687233 23.31608796 -11.46687233 23.31608796 -9 27 C-4.95845114 27.40397809 -4.95845114 27.40397809 -1 27 C1.5404226 24.66169042 1.5404226 24.66169042 3 22 C4.98 22.33 6.96 22.66 9 23 C8.49614177 27.40875955 7.0886933 29.82550966 4 33 C-0.32216088 35.59329653 -5.10156476 35.55388667 -10 35 C-15.35755096 33.07936852 -18.45837216 30.08325568 -21 25 C-21.17603147 22.58750308 -21.26744968 20.16849105 -21.3125 17.75 C-21.34988281 16.44546875 -21.38726562 15.1409375 -21.42578125 13.796875 C-20.82843367 8.47006904 -18.36554088 5.6215798 -15 1.625 C-10.16945669 -0.99154429 -5.36498271 -0.71242318 0 0 Z M-13 11 C-13 11.66 -13 12.32 -13 13 C-8.05 13 -3.1 13 2 13 C0.52360997 7.93991361 0.52360997 7.93991361 -3 6 C-8.00929437 5.07723525 -9.88613712 7.26336454 -13 11 Z " fill="#000000" transform="translate(370,223)"/>
<path d="M0 0 C2.8515625 1.80078125 2.8515625 1.80078125 5 4 C5.8125 7.75 5.8125 7.75 6 11 C2.6875 11.25 2.6875 11.25 -1 11 C-1.474375 10.34 -1.94875 9.68 -2.4375 9 C-3.7831095 6.79812332 -3.7831095 6.79812332 -5.953125 6.734375 C-7.97064445 6.74848353 -9.98675498 6.86798393 -12 7 C-12.11943561 8.96299556 -12.11943561 8.96299556 -11 11 C-7.65027066 12.25521178 -4.36949088 13.13457911 -0.90234375 13.97851562 C4.56441029 15.45722778 4.56441029 15.45722778 6.984375 18.47265625 C8.64752152 22.61133241 8.59486749 25.57892767 6.875 29.6875 C3.98228936 33.25517645 1.18755308 34.74033923 -3.40234375 35.28515625 C-8.63706668 35.46620682 -12.60082699 35.11161018 -17 32 C-19.60691129 28.61101532 -20 27.37265387 -20 23 C-18.02 22.67 -16.04 22.34 -14 22 C-13.34 23.65 -12.68 25.3 -12 27 C-8.7 27 -5.4 27 -2 27 C-2 25.68 -2 24.36 -2 23 C-2.80824219 22.76925781 -3.61648438 22.53851563 -4.44921875 22.30078125 C-16.03517422 18.76489858 -16.03517422 18.76489858 -19 14 C-19.73822262 10.8087857 -19.7721909 8.18672812 -19 5 C-14.43427485 -1.39201522 -7.36518966 -1.33661139 0 0 Z " fill="#000000" transform="translate(539,223)"/>
<path d="M0 0 C1.98 0 3.96 0 6 0 C6 0.66 6 1.32 6 2 C6.54785156 1.67773438 7.09570312 1.35546875 7.66015625 1.0234375 C11.9248373 -0.84191548 16.44112581 -0.56057268 21 0 C24.61691275 2.09780939 25.68291409 3.04874226 27 7 C27.08315752 9.06498892 27.10735878 11.1325789 27.09765625 13.19921875 C27.09443359 14.40771484 27.09121094 15.61621094 27.08789062 16.86132812 C27.07951172 18.12396484 27.07113281 19.38660156 27.0625 20.6875 C27.05798828 21.96173828 27.05347656 23.23597656 27.04882812 24.54882812 C27.03702873 27.69926564 27.02056597 30.84960949 27 34 C24.66705225 34.04241723 22.33297433 34.04092937 20 34 C18.28556781 32.28556781 18.76947033 29.99554759 18.68359375 27.65234375 C18.64169922 26.57275391 18.59980469 25.49316406 18.55664062 24.38085938 C18.51732422 23.24455078 18.47800781 22.10824219 18.4375 20.9375 C18.39431641 19.79732422 18.35113281 18.65714844 18.30664062 17.48242188 C18.20017161 14.65507805 18.09815793 11.82764262 18 9 C15.62391576 7.87548101 15.62391576 7.87548101 13 7 C9.84692313 8.6641239 9.14149228 9.57552315 8 13 C7.85284801 14.62567079 7.75278133 16.25586857 7.68359375 17.88671875 C7.64169922 18.82451172 7.59980469 19.76230469 7.55664062 20.72851562 C7.51732422 21.70498047 7.47800781 22.68144531 7.4375 23.6875 C7.39431641 24.67556641 7.35113281 25.66363281 7.30664062 26.68164062 C7.20058346 29.12095546 7.09852286 31.56037113 7 34 C4.69 34 2.38 34 0 34 C0 22.78 0 11.56 0 0 Z " fill="#000000" transform="translate(473,87)"/>
<path d="M0 0 C3.11840855 1.29174953 3.85415662 2.19848226 6 5 C6.875 8.8125 6.875 8.8125 7 12 C3.75 12.3125 3.75 12.3125 0 12 C-1.38232443 10.37373596 -2.71937515 8.7074998 -4 7 C-7.18373032 6.53408825 -8.93309225 6.97769742 -12 8 C-13.11221955 11.33665865 -13.20253779 13.98779662 -13.25 17.5 C-13.27578125 18.6446875 -13.3015625 19.789375 -13.328125 20.96875 C-13.24623557 23.95981821 -13.24623557 23.95981821 -11.70703125 25.88671875 C-8.87416323 27.73424137 -6.26874795 27.2971589 -3 27 C-0.8614515 24.8614515 -0.57344937 23.86724686 0 21 C2.64 21 5.28 21 8 21 C7.74537391 26.21983494 5.88742925 28.80651897 2.5703125 32.58203125 C-0.7043743 35.53902456 -4.55335351 35.27570182 -8.71875 35.21484375 C-13.39868833 34.77409613 -16.18281314 32.88344526 -19.3125 29.5 C-23.10215054 23.88570291 -22.43495424 17.53236827 -22 11 C-20.66931465 6.86009002 -18.56402479 3.62555185 -15.0703125 0.921875 C-10.300551 -1.2020188 -5.05413625 -0.78890705 0 0 Z " fill="#000000" transform="translate(474,223)"/>
<path d="M0 0 C2.99649387 1.50606387 5.05212924 3.271752 7 6 C7.9375 9.375 7.9375 9.375 8 12 C5.69 12.33 3.38 12.66 1 13 C0.608125 12.195625 0.21625 11.39125 -0.1875 10.5625 C-1.78016377 7.86635394 -1.78016377 7.86635394 -4.375 6.875 C-7.17957527 6.79486594 -7.17957527 6.79486594 -9.8125 8.75 C-12.95673715 13.42143805 -12.89175959 17.52325009 -12 23 C-10.68102444 25.90640718 -10.68102444 25.90640718 -8 27 C-4.30567489 26.85387105 -4.30567489 26.85387105 -1 26 C-0.34 24.35 0.32 22.7 1 21 C2.98 21 4.96 21 7 21 C7.98373155 24.13005494 8.1874467 25.56262437 6.875 28.625 C4.1188048 32.11618059 1.50447328 33.7959358 -2.9375 34.3984375 C-3.948125 34.39070313 -4.95875 34.38296875 -6 34.375 C-7.010625 34.38273437 -8.02125 34.39046875 -9.0625 34.3984375 C-12.41258939 33.94403708 -14.28305022 32.98071339 -17 31 C-21.25491483 25.07351149 -21.6027733 19.11272493 -21 12 C-19.7821457 6.92720533 -17.33753408 3.89168939 -13 1 C-8.9957905 -1.00210475 -4.34249007 -0.6271822 0 0 Z " fill="#000000" transform="translate(560,87)"/>
<path d="M0 0 C3.63 0 7.26 0 11 0 C11 14.52 11 29.04 11 44 C7.37 44 3.74 44 0 44 C0 29.48 0 14.96 0 0 Z " fill="#000000" transform="translate(527,144)"/>
<path d="M0 0 C0 3.63 0 7.26 0 11 C1.65 11 3.3 11 5 11 C6 12 6 12 6.0625 14.5625 C6.041875 15.366875 6.02125 16.17125 6 17 C4.02 17 2.04 17 0 17 C0 23.93 0 30.86 0 38 C1.65 38 3.3 38 5 38 C6 39 6 39 6.0625 42.0625 C6.041875 43.031875 6.02125 44.00125 6 45 C4.39667209 45.08121924 2.79215974 45.13929134 1.1875 45.1875 C-0.15248047 45.23970703 -0.15248047 45.23970703 -1.51953125 45.29296875 C-4 45 -4 45 -5.63671875 43.84179688 C-7.55242441 41.25367304 -7.34162823 39.43358692 -7.29296875 36.23828125 C-7.28330078 35.12001953 -7.27363281 34.00175781 -7.26367188 32.84960938 C-7.23853516 31.68236328 -7.21339844 30.51511719 -7.1875 29.3125 C-7.17396484 28.13365234 -7.16042969 26.95480469 -7.14648438 25.74023438 C-7.11109326 22.82636589 -7.06171809 19.91341055 -7 17 C-8.32 17 -9.64 17 -11 17 C-11 15.02 -11 13.04 -11 11 C-9.68 11 -8.36 11 -7 11 C-7.103125 9.741875 -7.20625 8.48375 -7.3125 7.1875 C-7.32421875 4.98046875 -7.32421875 4.98046875 -7 3 C-4.59140121 0.97170628 -3.16955691 0 0 0 Z " fill="#000000" transform="translate(516,76)"/>
<path d="M0 0 C2.31 0 4.62 0 7 0 C7 11.22 7 22.44 7 34 C4.69 34 2.38 34 0 34 C-1.67673649 32.32326351 -1.12787817 30.27144924 -1.13894653 28.03344727 C-1.1369223 27.34178467 -1.13489807 26.65012207 -1.1328125 25.9375 C-1.13376923 25.23101318 -1.13472595 24.52452637 -1.13571167 23.79663086 C-1.13639333 22.30029207 -1.13454005 20.80395033 -1.13037109 19.30761719 C-1.12502257 17.00969843 -1.13031651 14.71197514 -1.13671875 12.4140625 C-1.13605797 10.96354123 -1.1347768 9.51302009 -1.1328125 8.0625 C-1.13483673 7.3708374 -1.13686096 6.6791748 -1.13894653 5.96655273 C-1.11495224 1.11495224 -1.11495224 1.11495224 0 0 Z " fill="#000000" transform="translate(526,87)"/>
<path d="M0 0 C1.98 0 3.96 0 6 0 C7 1 7 1 7.11352539 4.14282227 C7.11336633 5.53402697 7.10767506 6.92523761 7.09765625 8.31640625 C7.0962413 9.04746078 7.09482635 9.77851532 7.09336853 10.53172302 C7.08775408 12.87535632 7.07519922 15.21889539 7.0625 17.5625 C7.05748686 19.14778508 7.05292363 20.73307166 7.04882812 22.31835938 C7.03777997 26.2122761 7.02050572 30.10612205 7 34 C4.69 34 2.38 34 0 34 C0 22.78 0 11.56 0 0 Z " fill="#000000" transform="translate(439,223)"/>
<path d="M0 0 C0.94875 0.04125 1.8975 0.0825 2.875 0.125 C2.875 2.765 2.875 5.405 2.875 8.125 C0.235 8.125 -2.405 8.125 -5.125 8.125 C-5.25 5.25 -5.25 5.25 -5.125 2.125 C-3.125 0.125 -3.125 0.125 0 0 Z " fill="#000000" transform="translate(530.125,74.875)"/>
<path d="M0 0 C2.31 0 4.62 0 7 0 C7 2.64 7 5.28 7 8 C4.69 8 2.38 8 0 8 C0 5.36 0 2.72 0 0 Z " fill="#000000" transform="translate(439,212)"/>
<path d="M0 0 C0.66 0.33 1.32 0.66 2 1 C0.02 2.98 -1.96 4.96 -4 7 C-4.66 6.67 -5.32 6.34 -6 6 C-4 4 -2 2 0 0 Z " fill="#000000" transform="translate(552,156)"/>
</svg>
